<svg xmlns="http://www.w3.org/2000/svg" aria-hidden="true" style="position:absolute;width:0;height:0;overflow:hidden"><defs><symbol id="icon-arrow-back" viewBox="0 0 32 32"><path stroke-linecap="round" stroke-linejoin="round" stroke-width="1.333" d="m20 24-8-8 8-8"/></symbol><symbol id="icon-arrow-left" viewBox="0 0 33 32"><path fill="#ff5400" d="M16.582 0H16C7.163 0 0 7.163 0 16s7.163 16 16 16h.582c8.837 0 16-7.163 16-16s-7.163-16-16-16" style="fill:var(--color1, #ff5400)"/><path fill="none" stroke="#fafafa" stroke-linecap="round" stroke-linejoin="round" stroke-width="1.164" d="M18.618 20.655 13.963 16l4.655-4.655" style="stroke:var(--color2, #fafafa)"/></symbol><symbol id="icon-arrow-right" viewBox="0 0 32 32"><path fill="#ff5400" d="M16 0C7.163 0 0 7.163 0 16s7.163 16 16 16 16-7.163 16-16S24.837 0 16 0" style="fill:var(--color1, #ff5400)"/><path fill="none" stroke="#fafafa" stroke-linecap="round" stroke-linejoin="round" stroke-width="1.143" d="M13.714 20.571 18.285 16l-4.571-4.571" style="stroke:var(--color2, #fafafa)"/></symbol><symbol id="icon-caret" viewBox="0 0 32 32"><path fill="#ff5400" d="M16 0c8.837 0 16 7.163 16 16s-7.163 16-16 16S0 24.837 0 16 7.163 0 16 0" style="fill:var(--color1, #ff5400)"/><path fill="none" stroke="#fafafa" stroke-linecap="round" stroke-linejoin="round" stroke-width="1.333" d="M9.333 12.667 16 19.334l6.667-6.667" style="stroke:var(--color2, #fafafa)"/></symbol><symbol id="icon-close" viewBox="0 0 32 32"><path fill="none" stroke="#fafafa" stroke-linecap="round" stroke-linejoin="round" stroke-width="1.333" d="m8 8 7.667 7.667m0 0L8 23.334m7.667-7.667 7.667 7.667m-7.667-7.667L23.334 8" style="stroke:var(--color2, #fafafa)"/></symbol><symbol id="icon-email" viewBox="0 0 32 32"><path fill="#ff5400" d="M29.333 8c0-1.467-1.2-2.667-2.667-2.667H5.333A2.675 2.675 0 0 0 2.666 8v16c0 1.467 1.2 2.667 2.667 2.667h21.333c1.467 0 2.667-1.2 2.667-2.667zm-2.666 0L16 14.667 5.333 8h21.333zm0 16H5.334V10.667l10.667 6.667 10.667-6.667z" style="fill:var(--color1, #ff5400)"/></symbol><symbol id="icon-features1" viewBox="0 0 32 32"><path fill="#ff5400" d="M23.333 16a2 2 0 1 1 .001-4.001A2 2 0 0 1 23.333 16m-4-5.333a2 2 0 1 1 .001-4.001 2 2 0 0 1-.001 4.001m-6.666 0a2 2 0 1 1 .001-4.001 2 2 0 0 1-.001 4.001m-4 5.333a2 2 0 1 1 .001-4.001A2 2 0 0 1 8.667 16M16 4A12.003 12.003 0 0 0 4 16a12 12 0 0 0 12 12 2 2 0 0 0 2-2c0-.52-.2-.987-.52-1.333a2.06 2.06 0 0 1-.507-1.333 2 2 0 0 1 2-2h2.36A6.67 6.67 0 0 0 28 14.667C28 8.774 22.627 4 16 4" style="fill:var(--color1, #ff5400)"/></symbol><symbol id="icon-features2" viewBox="0 0 32 32"><path fill="#ff5400" d="M4 28v-4.947l10.373-5.987 5.027 2.933 8.6-5v13zm24-16.08-8.6 4.973L14.373 14 4 20v-2.947l10.373-5.987 5.027 2.933 8.6-5z" style="fill:var(--color1, #ff5400)"/></symbol><symbol id="icon-features3" viewBox="0 0 32 32"><path fill="#ff5400" d="M4.001 23v5h5l14.747-14.76-5-5zm26.147 1.48-5.667 5.667-6.933-6.933 2.36-2.36 1.333 1.333 3.293-3.307 1.893 1.893-1.947 1.893 1.413 1.333 1.893-1.867 2.36 2.347zM8.814 14.44l-6.96-6.92 5.667-5.667 2.347 2.36L6.575 7.52l1.427 1.413 3.28-3.307 1.893 1.893-1.893 1.88 1.333 1.333-3.8 3.707zm18.8-5.106c.52-.52.52-1.333 0-1.88l-3.12-3.067c-.493-.52-1.36-.52-1.88 0l-2.453 2.44 5 5z" style="fill:var(--color1, #ff5400)"/></symbol><symbol id="icon-features4" viewBox="0 0 32 32"><path fill="#ff5400" d="M16 8v4l5.333-5.333L16 1.334v4A10.666 10.666 0 0 0 5.334 16c0 2.093.613 4.04 1.653 5.68l1.947-1.947A7.9 7.9 0 0 1 8.001 16a8 8 0 0 1 8-8zm9.013 2.32-1.947 1.947A8.06 8.06 0 0 1 23.999 16a8 8 0 0 1-8 8v-4l-5.333 5.333 5.333 5.333v-4A10.666 10.666 0 0 0 26.665 16c0-2.093-.613-4.04-1.653-5.68z" style="fill:var(--color1, #ff5400)"/></symbol><symbol id="icon-features5" viewBox="0 0 32 32"><path fill="#ff5400" d="M26.667 27.333c0 1.067-.933 2-2 2h-7.333c-.533 0-.933-.133-1.333-.533l-5.333-5.6.933-1.067c.267-.267.667-.4 1.067-.4h.267L16.002 24V12c0-.8.533-1.333 1.333-1.333s1.333.533 1.333 1.333v6l1.6.133 5.2 2.933c.667.267 1.2 1.067 1.2 1.733zm0-24.666H5.334a2.675 2.675 0 0 0-2.667 2.667v10.667c0 1.467 1.2 2.667 2.667 2.667h5.333v-2.667H5.334V5.334h21.333v10.667H24v2.667h2.667c1.467 0 2.667-1.2 2.667-2.667V5.334c0-1.467-1.2-2.667-2.667-2.667" style="fill:var(--color1, #ff5400)"/></symbol><symbol id="icon-menu" viewBox="0 0 32 32"><path fill="none" stroke="#fafafa" stroke-linecap="round" stroke-width="1.333" d="M6.667 9.333h18.667M6.667 22.667h18.667M6.667 16h18.667" style="stroke:var(--color2, #fafafa)"/></symbol><symbol id="icon-playstore" viewBox="0 0 134 32"><path fill="#eb4335" d="M13.204 15.283.121 29.342l.002.007C.524 30.877 1.901 32 3.535 32c.654 0 1.267-.179 1.793-.493l.042-.025 14.726-8.603-6.893-7.597z" style="fill:var(--color3, #eb4335)"/><path fill="#fabc13" d="m26.44 12.889-.012-.009-6.358-3.732-7.163 6.453 7.187 7.276 6.325-3.694a3.59 3.59 0 0 0 1.86-3.154 3.58 3.58 0 0 0-1.84-3.14z" style="fill:var(--color4, #fabc13)"/><path fill="#547dbf" d="M.12 2.659Q0 3.1 0 3.58v24.841q0 .48.12.921l13.533-13.699z" style="fill:var(--color5, #547dbf)"/><path fill="#30a851" d="m13.3 15.999 6.772-6.854L5.362.511A3.5 3.5 0 0 0 3.536 0C1.902 0 .523 1.126.121 2.655v.004z" style="fill:var(--color6, #30a851)"/><path fill="#fafafa" d="M44.176 4.072a2.2 2.2 0 0 0-.759-.485 2.5 2.5 0 0 0-.925-.171q-.502 0-.925.176a2.1 2.1 0 0 0-.726.502 2.4 2.4 0 0 0-.473.773q-.166.447-.166.986c0 .539.055.69.166.991q.166.451.469.782.307.33.722.51.419.18.916.18.448 0 .825-.146c.377-.146.473-.237.663-.418q.287-.271.464-.652a2.1 2.1 0 0 0 .228-.84h-2.119v-.715h2.928l.025.343q0 .715-.22 1.308c-.22.593-.355.738-.626 1.028q-.402.43-.958.669a3.1 3.1 0 0 1-1.219.234q-.688 0-1.273-.242a3.2 3.2 0 0 1-1.016-.685 3.2 3.2 0 0 1-.672-1.037 3.4 3.4 0 0 1-.236-1.287q0-.702.241-1.296.24-.597.672-1.041.435-.443 1.02-.685a3.25 3.25 0 0 1 1.273-.247q.65 0 1.24.226.593.225 1.053.648l-.593.594zm1.904 4.927V2.73h3.877v.811h-2.965v1.877h2.795v.811h-2.795v1.96h3.006V9zm7.12 0h-.912V3.541h-1.945V2.73h4.802v.811H53.2zm4.01 0V2.73h.912v6.269zm4.152 0h-.912V3.541h-1.945V2.73h4.802v.811h-1.945zm6.992.126q-.7 0-1.298-.242a3.1 3.1 0 0 1-1.033-.681 3.1 3.1 0 0 1-.676-1.037 3.5 3.5 0 0 1-.241-1.3q0-.706.241-1.3.24-.597.676-1.037.44-.44 1.033-.681a3.4 3.4 0 0 1 1.298-.242q.705 0 1.294.242a3.08 3.08 0 0 1 1.708 1.718q.24.594.241 1.3 0 .702-.241 1.3-.24.593-.68 1.037-.435.44-1.028.681a3.4 3.4 0 0 1-1.294.242m0-.811q.498 0 .921-.184c.423-.184.527-.294.734-.514q.311-.334.481-.777.174-.447.174-.974c0-.527-.058-.676-.174-.974a2.3 2.3 0 0 0-.481-.777 2.1 2.1 0 0 0-.734-.514q-.423-.184-.921-.184c-.498 0-.639.061-.921.184q-.419.18-.734.514-.31.33-.485.777c-.175.447-.174.623-.174.974s.058.676.174.974q.174.447.485.782.315.33.734.514.423.18.921.18zm9.326.685h-1.004l-3.574-4.84v4.84h-.912V2.73h1.003l3.575 4.844V2.73h.912zm-28.507 6.428a4 4 0 0 0-1.41-.911 4.7 4.7 0 0 0-1.733-.318q-.937 0-1.717.326a3.8 3.8 0 0 0-1.335.936 4.2 4.2 0 0 0-.871 1.438 5.3 5.3 0 0 0-.307 1.839q0 1.02.307 1.872.315.844.879 1.463.572.618 1.352.953c.78.335 1.092.334 1.717.334q.813 0 1.493-.251a3.7 3.7 0 0 0 1.194-.736q.522-.484.854-1.162c.332-.678.368-.953.44-1.505h-3.931V18h5.863l.058.836q0 1.43-.44 2.616A6 6 0 0 1 50.35 23.5q-.804.861-1.907 1.329c-1.103.468-1.548.468-2.438.468a6.5 6.5 0 0 1-2.554-.493 6.4 6.4 0 0 1-2.049-1.371 6.4 6.4 0 0 1-1.36-2.073 6.8 6.8 0 0 1-.481-2.583q0-1.387.481-2.575a6.4 6.4 0 0 1 1.352-2.081 6.1 6.1 0 0 1 2.04-1.371 6.5 6.5 0 0 1 2.546-.493q1.302 0 2.488.451a6.7 6.7 0 0 1 2.131 1.296l-1.426 1.421zm7.755 9.789q-1.26 0-2.264-.568a4.26 4.26 0 0 1-1.576-1.546q-.572-.987-.572-2.232c0-1.245.191-1.572.572-2.223a4.23 4.23 0 0 1 1.576-1.555q1.004-.568 2.264-.568 1.27 0 2.264.568c.994.568 1.183.897 1.559 1.555q.572.978.572 2.223c0 1.245-.191 1.574-.572 2.232q-.564.978-1.559 1.546c-.995.568-1.418.568-2.264.568m-.008-1.848q.663 0 1.186-.326c.523-.326.622-.515.821-.894q.307-.569.307-1.287 0-.71-.307-1.271-.299-.569-.821-.894c-.522-.325-.744-.326-1.186-.326q-.655 0-1.186.326a2.34 2.34 0 0 0-.829.894 2.66 2.66 0 0 0-.299 1.271q0 .718.299 1.287.307.569.829.894.53.326 1.186.326m9.214 1.848q-1.26 0-2.264-.568a4.26 4.26 0 0 1-1.576-1.546q-.572-.987-.572-2.232c0-1.245.191-1.572.572-2.223a4.23 4.23 0 0 1 1.576-1.555q1.004-.568 2.264-.568 1.27 0 2.264.568c.994.568 1.183.897 1.559 1.555q.572.978.572 2.223c0 1.245-.191 1.574-.572 2.232q-.564.978-1.559 1.546c-.995.568-1.418.568-2.264.568m-.008-1.848q.663 0 1.186-.326c.523-.326.622-.515.821-.894q.307-.569.307-1.287 0-.71-.307-1.271-.299-.569-.821-.894c-.522-.325-.744-.326-1.186-.326q-.655 0-1.186.326a2.34 2.34 0 0 0-.829.894 2.66 2.66 0 0 0-.299 1.271q0 .718.299 1.287.307.569.829.894.53.326 1.186.326m8.808 1.748q-1.153 0-2.057-.56c-.904-.56-1.078-.883-1.427-1.53q-.522-.978-.522-2.207 0-1.237.522-2.207c.522-.97.824-1.156 1.427-1.53q.904-.56 2.057-.56.904 0 1.667.351c.763.351.94.56 1.293.978l.1-1.162h1.791v8.133q0 1.387-.589 2.416a4 4 0 0 1-1.642 1.588q-1.062.568-2.512.568-2.016 0-3.608-1.296l.838-1.68q1.112 1.128 2.637 1.128.863 0 1.493-.351.639-.343.988-.978.356-.627.356-1.471v-.803q-.532.552-1.252.861c-.72.309-1.001.309-1.559.309zm.448-1.831q.655 0 1.186-.293.539-.302.854-.819.324-.518.324-1.179v-.368q0-.66-.324-1.17a2.24 2.24 0 0 0-.854-.802 2.4 2.4 0 0 0-1.186-.301q-.68 0-1.219.326a2.3 2.3 0 0 0-.854.878q-.307.56-.307 1.262c0 .702.102.889.307 1.262q.315.56.854.886a2.35 2.35 0 0 0 1.219.318m8.029 1.764H81.23V12.51h2.181zm9.057-.97q-1.551 1.137-3.392 1.137-1.335 0-2.397-.585c-1.062-.585-1.269-.922-1.683-1.597q-.614-1.011-.614-2.29 0-1.212.556-2.165a4.1 4.1 0 0 1 1.534-1.505q.979-.552 2.207-.552 1.277 0 2.239.61.97.601 1.509 1.68.539 1.07.539 2.491v.267H86.58q.15.568.522 1.003.381.434.946.677c.565.243.799.242 1.269.242q1.327 0 2.455-.869l.697 1.454zm-5.971-3.711h4.578a2.4 2.4 0 0 0-.382-1.095 2.1 2.1 0 0 0-.804-.727 2.3 2.3 0 0 0-1.103-.268q-.622 0-1.112.268c-.49.268-.592.426-.796.744a2.5 2.5 0 0 0-.381 1.078m10.708 4.681V12.51h4.114q1.559 0 2.678.502 1.128.501 1.725 1.429.606.928.606 2.215 0 1.28-.606 2.215-.597.936-1.717 1.446-1.119.502-2.67.502h-1.941v4.23zm2.189-6.161h1.717q1.435 0 2.206-.585.772-.594.772-1.647c0-1.053-.26-1.245-.78-1.63q-.77-.577-2.198-.577h-1.717zm10.293 6.161h-2.181V12.51h2.181zm8.7 0h-1.774l-.117-1.028a3.1 3.1 0 0 1-1.136.886 3.6 3.6 0 0 1-1.51.309q-.879 0-1.567-.343a2.8 2.8 0 0 1-1.087-.953 2.46 2.46 0 0 1-.39-1.371q0-.811.423-1.421a2.9 2.9 0 0 1 1.169-.97q.746-.351 1.7-.351.58 0 1.161.134.588.134 1.087.376v-.268q0-.551-.298-.953c-.298-.402-.467-.474-.804-.619a2.8 2.8 0 0 0-1.136-.226q-.573 0-1.145.201-.573.192-1.07.577l-.58-1.613a7.3 7.3 0 0 1 1.626-.669 6.3 6.3 0 0 1 1.633-.226q1.17 0 2.023.468a3.2 3.2 0 0 1 1.319 1.321q.474.852.473 2.015zm-4.113-1.488q.539 0 .995-.226.465-.225.755-.627.298-.41.316-.936v-.092a3 3 0 0 0-.88-.435 3.2 3.2 0 0 0-.987-.159q-.763 0-1.252.351-.489.342-.489.903 0 .342.199.627.2.276.548.435.356.159.796.159zm9.148 5.667h-2.181l1.725-4.213-4.114-8.326h2.297l2.787 5.977 2.455-5.977h2.181z" style="fill:var(--color2, #fafafa)"/></symbol></defs></svg>